# xmcd
#
# Track frame offsets: 
#        150
#        19985
#        37937
#        53097
#        71022
#        95372
#        111235
#        128405
#        145875
#        163885
#        188970
#
# Disc length: 2752 seconds
#
# Revision: 2
# Processed by: cddbd v1.5.2PL0 Copyright (c) Steve Scherf et al.
# Submitted via: ExactAudioCopy v0.99pb5
#
DISCID=950abe0b
DTITLE=Mark Farner - Wake Up
DYEAR=1989
DGENRE=Christian Rock
TTITLE0=Wake Up
TTITLE1=Into The Light
TTITLE2=New Age
TTITLE3=Come To Me
TTITLE4=In Your Sight
TTITLE5=Upright Man
TTITLE6=Rocco
TTITLE7=If It Wasn't For Grace
TTITLE8=Love Power
TTITLE9=Role Model
TTITLE10=Like I Was Before
EXTD=
EXTT0=
EXTT1=
EXTT2=
EXTT3=
EXTT4=
EXTT5=
EXTT6=
EXTT7=
EXTT8=
EXTT9=
EXTT10=
PLAYORDER=
